<svg xmlns="http://www.w3.org/2000/svg" xmlns:xlink="http://www.w3.org/1999/xlink" width="60" zoomAndPan="magnify" viewBox="0 0 705 591.000005" height="60" preserveAspectRatio="xMidYMid meet" version="1.0"><defs><filter x="0%" y="0%" width="100%" height="100%" id="c9cf1fa346"><feColorMatrix values="0 0 0 0 1 0 0 0 0 1 0 0 0 0 1 0 0 0 1 0" color-interpolation-filters="sRGB"/></filter><g/><clipPath id="108e08ff4a"><path d="M 0.59375 0 L 704.402344 0 L 704.402344 590 L 0.59375 590 Z M 0.59375 0 " clip-rule="nonzero"/></clipPath><mask id="33f40b2ed9"><g filter="url(#c9cf1fa346)"><rect x="-70.5" width="846" fill="#000000" y="-59.100001" height="709.200006" fill-opacity="0.88"/></g></mask><clipPath id="0661c60280"><path d="M 0.0703125 1.132812 L 452.960938 1.132812 L 452.960938 276.664062 L 0.0703125 276.664062 Z M 0.0703125 1.132812 " clip-rule="nonzero"/></clipPath><clipPath id="9e396d4ce8"><rect x="0" width="454" y="0" height="278"/></clipPath></defs><g clip-path="url(#108e08ff4a)"><path fill="#ffffff" d="M 0.59375 0 L 704.40625 0 L 704.40625 590 L 0.59375 590 Z M 0.59375 0 " fill-opacity="1" fill-rule="nonzero"/><path fill="#ffffff" d="M 0.59375 0 L 704.40625 0 L 704.40625 590 L 0.59375 590 Z M 0.59375 0 " fill-opacity="1" fill-rule="nonzero"/></g><g mask="url(#33f40b2ed9)"><g transform="matrix(1, 0, 0, 1, 122, 72)"><g clip-path="url(#9e396d4ce8)"><g clip-path="url(#0661c60280)"><path fill="#000000" d="M 176.566406 276.996094 L 294.355469 276.996094 L 197.304688 97.15625 L 105.835938 146.570312 L 176.566406 277 Z M 212.445312 50.542969 L 303.761719 1.128906 L 453.023438 276.996094 L 334.792969 276.996094 L 212.445312 50.539062 Z M 136.863281 276.996094 L 91.425781 193.175781 L 0.101562 242.441406 L 18.925781 276.996094 Z M 136.863281 276.996094 " fill-opacity="1" fill-rule="evenodd"/></g></g></g></g><g fill="#000000" fill-opacity="1"><g transform="translate(94.557746, 463.04431)"><g><path d="M 67.234375 -8.5 C 65.535156 -5.09375 62.5625 -2.375 58.3125 -0.34375 C 54.070312 1.675781 49.359375 2.6875 44.171875 2.6875 C 36.617188 2.6875 29.84375 0.847656 23.84375 -2.828125 C 17.851562 -6.515625 13.179688 -11.566406 9.828125 -17.984375 C 6.484375 -24.398438 4.8125 -31.523438 4.8125 -39.359375 C 4.8125 -47.003906 6.53125 -54.035156 9.96875 -60.453125 C 13.414062 -66.867188 18.132812 -71.9375 24.125 -75.65625 C 30.125 -79.382812 36.804688 -81.25 44.171875 -81.25 C 49.078125 -81.25 53.601562 -80.28125 57.75 -78.34375 C 61.90625 -76.414062 65.066406 -73.707031 67.234375 -70.21875 L 67.53125 -70.21875 L 67.53125 -78.5625 L 91.03125 -78.5625 L 91.03125 0 L 67.53125 0 L 67.53125 -8.5 Z M 67.53125 -39.359375 C 67.53125 -42.941406 66.628906 -46.265625 64.828125 -49.328125 C 63.035156 -52.398438 60.601562 -54.832031 57.53125 -56.625 C 54.46875 -58.414062 51.144531 -59.3125 47.5625 -59.3125 C 44.070312 -59.3125 40.835938 -58.414062 37.859375 -56.625 C 34.890625 -54.832031 32.554688 -52.378906 30.859375 -49.265625 C 29.160156 -46.148438 28.3125 -42.753906 28.3125 -39.078125 C 28.3125 -35.484375 29.179688 -32.175781 30.921875 -29.15625 C 32.671875 -26.132812 35.03125 -23.726562 38 -21.9375 C 40.976562 -20.144531 44.257812 -19.25 47.84375 -19.25 C 51.4375 -19.25 54.738281 -20.144531 57.75 -21.9375 C 60.769531 -23.726562 63.15625 -26.15625 64.90625 -29.21875 C 66.65625 -32.289062 67.53125 -35.671875 67.53125 -39.359375 Z M 67.53125 -39.359375 "/></g></g></g><g fill="#000000" fill-opacity="1"><g transform="translate(194.190766, 463.04431)"><g><path d="M 67.671875 -8.5 C 63.234375 -1.132812 55.398438 2.546875 44.171875 2.546875 C 36.429688 2.546875 29.5625 0.707031 23.5625 -2.96875 C 17.570312 -6.65625 12.945312 -11.679688 9.6875 -18.046875 C 6.4375 -24.421875 4.8125 -31.570312 4.8125 -39.5 C 4.8125 -47.238281 6.460938 -54.289062 9.765625 -60.65625 C 13.066406 -67.03125 17.691406 -72.054688 23.640625 -75.734375 C 29.585938 -79.410156 36.289062 -81.25 43.75 -81.25 C 48.363281 -81.25 52.535156 -80.519531 56.265625 -79.0625 C 59.992188 -77.601562 63.507812 -75.21875 66.8125 -71.90625 L 66.8125 -104.75 L 90.3125 -104.75 L 90.3125 0 L 67.953125 0 L 67.953125 -8.5 Z M 68.09375 -39.640625 C 68.09375 -43.222656 67.242188 -46.523438 65.546875 -49.546875 C 63.847656 -52.566406 61.460938 -54.945312 58.390625 -56.6875 C 55.328125 -58.4375 51.90625 -59.3125 48.125 -59.3125 C 42.5625 -59.3125 37.867188 -57.445312 34.046875 -53.71875 C 30.222656 -49.988281 28.3125 -45.296875 28.3125 -39.640625 C 28.3125 -33.691406 30.175781 -28.828125 33.90625 -25.046875 C 37.632812 -21.273438 42.328125 -19.390625 47.984375 -19.390625 C 53.742188 -19.390625 58.535156 -21.320312 62.359375 -25.1875 C 66.179688 -29.0625 68.09375 -33.878906 68.09375 -39.640625 Z M 68.09375 -39.640625 "/></g></g></g><g fill="#000000" fill-opacity="1"><g transform="translate(292.974669, 463.04431)"><g><path d="M 32 -104.75 L 32 -86.921875 L 8.5 -86.921875 L 8.5 -104.75 Z M 32 -78.5625 L 32 0 L 8.5 0 L 8.5 -78.5625 Z M 32 -78.5625 "/></g></g></g><g fill="#000000" fill-opacity="1"><g transform="translate(333.450593, 463.04431)"><g><path d="M 67.671875 -8.5 C 63.234375 -1.132812 55.398438 2.546875 44.171875 2.546875 C 36.429688 2.546875 29.5625 0.707031 23.5625 -2.96875 C 17.570312 -6.65625 12.945312 -11.679688 9.6875 -18.046875 C 6.4375 -24.421875 4.8125 -31.570312 4.8125 -39.5 C 4.8125 -47.238281 6.460938 -54.289062 9.765625 -60.65625 C 13.066406 -67.03125 17.691406 -72.054688 23.640625 -75.734375 C 29.585938 -79.410156 36.289062 -81.25 43.75 -81.25 C 48.363281 -81.25 52.535156 -80.519531 56.265625 -79.0625 C 59.992188 -77.601562 63.507812 -75.21875 66.8125 -71.90625 L 66.8125 -104.75 L 90.3125 -104.75 L 90.3125 0 L 67.953125 0 L 67.953125 -8.5 Z M 68.09375 -39.640625 C 68.09375 -43.222656 67.242188 -46.523438 65.546875 -49.546875 C 63.847656 -52.566406 61.460938 -54.945312 58.390625 -56.6875 C 55.328125 -58.4375 51.90625 -59.3125 48.125 -59.3125 C 42.5625 -59.3125 37.867188 -57.445312 34.046875 -53.71875 C 30.222656 -49.988281 28.3125 -45.296875 28.3125 -39.640625 C 28.3125 -33.691406 30.175781 -28.828125 33.90625 -25.046875 C 37.632812 -21.273438 42.328125 -19.390625 47.984375 -19.390625 C 53.742188 -19.390625 58.535156 -21.320312 62.359375 -25.1875 C 66.179688 -29.0625 68.09375 -33.878906 68.09375 -39.640625 Z M 68.09375 -39.640625 "/></g></g></g><g fill="#000000" fill-opacity="1"><g transform="translate(432.234497, 463.04431)"><g><path d="M 67.234375 -8.5 C 65.535156 -5.09375 62.5625 -2.375 58.3125 -0.34375 C 54.070312 1.675781 49.359375 2.6875 44.171875 2.6875 C 36.617188 2.6875 29.84375 0.847656 23.84375 -2.828125 C 17.851562 -6.515625 13.179688 -11.566406 9.828125 -17.984375 C 6.484375 -24.398438 4.8125 -31.523438 4.8125 -39.359375 C 4.8125 -47.003906 6.53125 -54.035156 9.96875 -60.453125 C 13.414062 -66.867188 18.132812 -71.9375 24.125 -75.65625 C 30.125 -79.382812 36.804688 -81.25 44.171875 -81.25 C 49.078125 -81.25 53.601562 -80.28125 57.75 -78.34375 C 61.90625 -76.414062 65.066406 -73.707031 67.234375 -70.21875 L 67.53125 -70.21875 L 67.53125 -78.5625 L 91.03125 -78.5625 L 91.03125 0 L 67.53125 0 L 67.53125 -8.5 Z M 67.53125 -39.359375 C 67.53125 -42.941406 66.628906 -46.265625 64.828125 -49.328125 C 63.035156 -52.398438 60.601562 -54.832031 57.53125 -56.625 C 54.46875 -58.414062 51.144531 -59.3125 47.5625 -59.3125 C 44.070312 -59.3125 40.835938 -58.414062 37.859375 -56.625 C 34.890625 -54.832031 32.554688 -52.378906 30.859375 -49.265625 C 29.160156 -46.148438 28.3125 -42.753906 28.3125 -39.078125 C 28.3125 -35.484375 29.179688 -32.175781 30.921875 -29.15625 C 32.671875 -26.132812 35.03125 -23.726562 38 -21.9375 C 40.976562 -20.144531 44.257812 -19.25 47.84375 -19.25 C 51.4375 -19.25 54.738281 -20.144531 57.75 -21.9375 C 60.769531 -23.726562 63.15625 -26.15625 64.90625 -29.21875 C 66.65625 -32.289062 67.53125 -35.671875 67.53125 -39.359375 Z M 67.53125 -39.359375 "/></g></g></g><g fill="#000000" fill-opacity="1"><g transform="translate(531.867517, 463.04431)"><g><path d="M 34.6875 -62.421875 C 32.695312 -62.421875 31.066406 -61.925781 29.796875 -60.9375 C 28.523438 -59.945312 27.890625 -58.695312 27.890625 -57.1875 C 27.890625 -55.113281 28.953125 -53.414062 31.078125 -52.09375 C 33.203125 -50.769531 37.046875 -49.398438 42.609375 -47.984375 C 51.671875 -45.628906 58.066406 -42.539062 61.796875 -38.71875 C 65.523438 -34.894531 67.390625 -30.007812 67.390625 -24.0625 C 67.390625 -18.6875 65.972656 -13.992188 63.140625 -9.984375 C 60.304688 -5.972656 56.457031 -2.859375 51.59375 -0.640625 C 46.738281 1.578125 41.335938 2.6875 35.390625 2.6875 C 26.515625 2.6875 19.175781 0.328125 13.375 -4.390625 C 7.570312 -9.109375 4.242188 -15.429688 3.390625 -23.359375 L 26.75 -23.359375 C 27.132812 -20.992188 28.101562 -19.195312 29.65625 -17.96875 C 31.21875 -16.75 33.222656 -16.140625 35.671875 -16.140625 C 37.835938 -16.140625 39.75 -16.703125 41.40625 -17.828125 C 43.0625 -18.960938 43.890625 -20.425781 43.890625 -22.21875 C 43.890625 -24.488281 42.921875 -26.332031 40.984375 -27.75 C 39.046875 -29.164062 35.195312 -30.769531 29.4375 -32.5625 C 20.101562 -35.394531 13.59375 -38.695312 9.90625 -42.46875 C 6.226562 -46.238281 4.390625 -50.628906 4.390625 -55.640625 C 4.390625 -60.640625 5.800781 -65.097656 8.625 -69.015625 C 11.457031 -72.929688 15.207031 -75.945312 19.875 -78.0625 C 24.550781 -80.1875 29.535156 -81.25 34.828125 -81.25 C 43.410156 -81.25 50.4375 -79.03125 55.90625 -74.59375 C 61.382812 -70.164062 64.410156 -64.128906 64.984375 -56.484375 L 41.90625 -56.484375 C 41.8125 -60.441406 39.40625 -62.421875 34.6875 -62.421875 Z M 34.6875 -62.421875 "/></g></g></g></svg>