<svg xmlns="http://www.w3.org/2000/svg" xmlns:xlink="http://www.w3.org/1999/xlink" width="150"  zoomAndPan="magnify" viewBox="0 0 705 591.000005" height="120"  preserveAspectRatio="xMidYMid meet" version="1.0"><defs><g/><clipPath id="d7cf78d746"><path d="M 0.59375 0 L 704.402344 0 L 704.402344 590 L 0.59375 590 Z M 0.59375 0 " clip-rule="nonzero"/></clipPath></defs><g clip-path="url(#d7cf78d746)"><path fill="#ffffff" d="M 0.59375 0 L 704.40625 0 L 704.40625 590 L 0.59375 590 Z M 0.59375 0 " fill-opacity="1" fill-rule="nonzero"/><path fill="#ffffff" d="M 0.59375 0 L 704.40625 0 L 704.40625 590 L 0.59375 590 Z M 0.59375 0 " fill-opacity="1" fill-rule="nonzero"/></g><g fill="#000000" fill-opacity="1"><g transform="translate(15.19339, 322.703544)"><g><path d="M 38.671875 1.203125 C 31.566406 1.203125 25.46875 -0.316406 20.375 -3.359375 C 15.289062 -6.410156 11.375 -10.664062 8.625 -16.125 C 5.882812 -21.582031 4.515625 -27.890625 4.515625 -35.046875 C 4.515625 -42.210938 5.882812 -48.539062 8.625 -54.03125 C 11.375 -59.519531 15.289062 -63.804688 20.375 -66.890625 C 25.46875 -69.972656 31.566406 -71.515625 38.671875 -71.515625 C 47.109375 -71.515625 54.019531 -69.421875 59.40625 -65.234375 C 64.800781 -61.046875 68.164062 -55.171875 69.5 -47.609375 L 55.34375 -47.609375 C 54.46875 -51.421875 52.609375 -54.414062 49.765625 -56.59375 C 46.921875 -58.769531 43.15625 -59.859375 38.46875 -59.859375 C 31.96875 -59.859375 26.875 -57.648438 23.1875 -53.234375 C 19.507812 -48.816406 17.671875 -42.753906 17.671875 -35.046875 C 17.671875 -27.347656 19.507812 -21.304688 23.1875 -16.921875 C 26.875 -12.535156 31.96875 -10.34375 38.46875 -10.34375 C 43.15625 -10.34375 46.921875 -11.363281 49.765625 -13.40625 C 52.609375 -15.445312 54.46875 -18.273438 55.34375 -21.890625 L 69.5 -21.890625 C 68.164062 -14.660156 64.800781 -9.003906 59.40625 -4.921875 C 54.019531 -0.835938 47.109375 1.203125 38.671875 1.203125 Z M 38.671875 1.203125 "/></g></g></g><g fill="#000000" fill-opacity="1"><g transform="translate(89.204696, 322.703544)"><g><path d="M 25.203125 1.203125 C 18.984375 1.203125 14.179688 -0.738281 10.796875 -4.625 C 7.410156 -8.507812 5.71875 -14.195312 5.71875 -21.6875 L 5.71875 -49.8125 L 18.484375 -49.8125 L 18.484375 -22.90625 C 18.484375 -18.613281 19.351562 -15.328125 21.09375 -13.046875 C 22.832031 -10.773438 25.578125 -9.640625 29.328125 -9.640625 C 32.878906 -9.640625 35.804688 -10.910156 38.109375 -13.453125 C 40.421875 -16.003906 41.578125 -19.554688 41.578125 -24.109375 L 41.578125 -49.8125 L 54.4375 -49.8125 L 54.4375 0 L 43.09375 0 L 42.078125 -8.4375 C 40.535156 -5.488281 38.304688 -3.144531 35.390625 -1.40625 C 32.484375 0.332031 29.085938 1.203125 25.203125 1.203125 Z M 25.203125 1.203125 "/></g></g></g><g fill="#000000" fill-opacity="1"><g transform="translate(150.261489, 322.703544)"><g><path d="M 27.125 1.203125 C 22.695312 1.203125 18.8125 0.484375 15.46875 -0.953125 C 12.125 -2.390625 9.445312 -4.378906 7.4375 -6.921875 C 5.425781 -9.472656 4.21875 -12.421875 3.8125 -15.765625 L 16.765625 -15.765625 C 17.171875 -13.828125 18.257812 -12.171875 20.03125 -10.796875 C 21.8125 -9.421875 24.109375 -8.734375 26.921875 -8.734375 C 29.734375 -8.734375 31.789062 -9.300781 33.09375 -10.4375 C 34.394531 -11.582031 35.046875 -12.890625 35.046875 -14.359375 C 35.046875 -16.503906 34.109375 -17.960938 32.234375 -18.734375 C 30.359375 -19.503906 27.75 -20.253906 24.40625 -20.984375 C 22.257812 -21.453125 20.082031 -22.019531 17.875 -22.6875 C 15.664062 -23.363281 13.640625 -24.21875 11.796875 -25.25 C 9.960938 -26.289062 8.472656 -27.628906 7.328125 -29.265625 C 6.191406 -30.910156 5.625 -32.941406 5.625 -35.359375 C 5.625 -39.773438 7.378906 -43.488281 10.890625 -46.5 C 14.410156 -49.507812 19.351562 -51.015625 25.71875 -51.015625 C 31.601562 -51.015625 36.300781 -49.640625 39.8125 -46.890625 C 43.332031 -44.148438 45.425781 -40.375 46.09375 -35.5625 L 33.953125 -35.5625 C 33.210938 -39.238281 30.429688 -41.078125 25.609375 -41.078125 C 23.203125 -41.078125 21.34375 -40.609375 20.03125 -39.671875 C 18.726562 -38.734375 18.078125 -37.5625 18.078125 -36.15625 C 18.078125 -34.6875 19.046875 -33.515625 20.984375 -32.640625 C 22.929688 -31.773438 25.507812 -30.972656 28.71875 -30.234375 C 32.207031 -29.429688 35.40625 -28.539062 38.3125 -27.5625 C 41.226562 -26.59375 43.554688 -25.15625 45.296875 -23.25 C 47.035156 -21.34375 47.90625 -18.613281 47.90625 -15.0625 C 47.976562 -11.988281 47.175781 -9.210938 45.5 -6.734375 C 43.820312 -4.253906 41.410156 -2.3125 38.265625 -0.90625 C 35.117188 0.5 31.40625 1.203125 27.125 1.203125 Z M 27.125 1.203125 "/></g></g></g><g fill="#000000" fill-opacity="1"><g transform="translate(202.983217, 322.703544)"><g><path d="M 23.703125 1.203125 C 19.421875 1.203125 15.90625 0.519531 13.15625 -0.84375 C 10.414062 -2.21875 8.375 -4.046875 7.03125 -6.328125 C 5.6875 -8.609375 5.015625 -11.117188 5.015625 -13.859375 C 5.015625 -18.484375 6.820312 -22.234375 10.4375 -25.109375 C 14.0625 -27.984375 19.488281 -29.421875 26.71875 -29.421875 L 39.375 -29.421875 L 39.375 -30.640625 C 39.375 -34.046875 38.398438 -36.550781 36.453125 -38.15625 C 34.515625 -39.769531 32.109375 -40.578125 29.234375 -40.578125 C 26.617188 -40.578125 24.335938 -39.957031 22.390625 -38.71875 C 20.453125 -37.476562 19.25 -35.65625 18.78125 -33.25 L 6.234375 -33.25 C 6.566406 -36.863281 7.785156 -40.007812 9.890625 -42.6875 C 12.003906 -45.363281 14.734375 -47.421875 18.078125 -48.859375 C 21.421875 -50.296875 25.171875 -51.015625 29.328125 -51.015625 C 36.421875 -51.015625 42.007812 -49.238281 46.09375 -45.6875 C 50.1875 -42.144531 52.234375 -37.128906 52.234375 -30.640625 L 52.234375 0 L 41.28125 0 L 40.078125 -8.03125 C 38.597656 -5.351562 36.535156 -3.144531 33.890625 -1.40625 C 31.253906 0.332031 27.859375 1.203125 23.703125 1.203125 Z M 26.609375 -8.84375 C 30.296875 -8.84375 33.160156 -10.046875 35.203125 -12.453125 C 37.242188 -14.859375 38.53125 -17.835938 39.0625 -21.390625 L 28.125 -21.390625 C 24.707031 -21.390625 22.257812 -20.769531 20.78125 -19.53125 C 19.3125 -18.289062 18.578125 -16.769531 18.578125 -14.96875 C 18.578125 -13.019531 19.3125 -11.507812 20.78125 -10.4375 C 22.257812 -9.375 24.203125 -8.84375 26.609375 -8.84375 Z M 26.609375 -8.84375 "/></g></g></g><g fill="#000000" fill-opacity="1"><g transform="translate(260.926946, 322.703544)"><g><path d="M 6.53125 0 L 6.53125 -49.8125 L 17.875 -49.8125 L 18.875 -41.375 C 20.414062 -44.320312 22.644531 -46.664062 25.5625 -48.40625 C 28.476562 -50.144531 31.910156 -51.015625 35.859375 -51.015625 C 42.015625 -51.015625 46.800781 -49.070312 50.21875 -45.1875 C 53.632812 -41.3125 55.34375 -35.625 55.34375 -28.125 L 55.34375 0 L 42.484375 0 L 42.484375 -26.921875 C 42.484375 -31.203125 41.613281 -34.476562 39.875 -36.75 C 38.132812 -39.03125 35.421875 -40.171875 31.734375 -40.171875 C 28.117188 -40.171875 25.15625 -38.898438 22.84375 -36.359375 C 20.539062 -33.816406 19.390625 -30.269531 19.390625 -25.71875 L 19.390625 0 Z M 6.53125 0 "/></g></g></g><g fill="#000000" fill-opacity="1"><g transform="translate(321.98374, 322.703544)"><g><path d="M 30.4375 1.203125 C 25.613281 1.203125 21.273438 0.0976562 17.421875 -2.109375 C 13.578125 -4.316406 10.53125 -7.378906 8.28125 -11.296875 C 6.039062 -15.210938 4.921875 -19.75 4.921875 -24.90625 C 4.921875 -30.0625 6.054688 -34.597656 8.328125 -38.515625 C 10.609375 -42.429688 13.671875 -45.492188 17.515625 -47.703125 C 21.367188 -49.910156 25.707031 -51.015625 30.53125 -51.015625 C 35.28125 -51.015625 39.582031 -49.910156 43.4375 -47.703125 C 47.289062 -45.492188 50.335938 -42.429688 52.578125 -38.515625 C 54.816406 -34.597656 55.9375 -30.0625 55.9375 -24.90625 C 55.9375 -19.75 54.816406 -15.210938 52.578125 -11.296875 C 50.335938 -7.378906 47.273438 -4.316406 43.390625 -2.109375 C 39.503906 0.0976562 35.1875 1.203125 30.4375 1.203125 Z M 30.4375 -9.9375 C 33.78125 -9.9375 36.691406 -11.191406 39.171875 -13.703125 C 41.648438 -16.210938 42.890625 -19.945312 42.890625 -24.90625 C 42.890625 -29.863281 41.648438 -33.597656 39.171875 -36.109375 C 36.691406 -38.617188 33.8125 -39.875 30.53125 -39.875 C 27.113281 -39.875 24.179688 -38.617188 21.734375 -36.109375 C 19.296875 -33.597656 18.078125 -29.863281 18.078125 -24.90625 C 18.078125 -19.945312 19.296875 -16.210938 21.734375 -13.703125 C 24.179688 -11.191406 27.082031 -9.9375 30.4375 -9.9375 Z M 30.4375 -9.9375 "/></g></g></g><g fill="#000000" fill-opacity="1"><g transform="translate(382.839708, 322.703544)"><g><path d="M 28.71875 0 C 23.5 0 19.316406 -1.269531 16.171875 -3.8125 C 13.023438 -6.363281 11.453125 -10.882812 11.453125 -17.375 L 11.453125 -39.0625 L 2.90625 -39.0625 L 2.90625 -49.8125 L 11.453125 -49.8125 L 12.953125 -63.171875 L 24.3125 -63.171875 L 24.3125 -49.8125 L 37.765625 -49.8125 L 37.765625 -39.0625 L 24.3125 -39.0625 L 24.3125 -17.28125 C 24.3125 -14.863281 24.828125 -13.203125 25.859375 -12.296875 C 26.898438 -11.398438 28.691406 -10.953125 31.234375 -10.953125 L 37.46875 -10.953125 L 37.46875 0 Z M 28.71875 0 "/></g></g></g><g fill="#000000" fill-opacity="1"><g transform="translate(425.11751, 322.703544)"><g><path d="M 30.734375 1.203125 C 25.710938 1.203125 21.257812 0.132812 17.375 -2 C 13.488281 -4.144531 10.441406 -7.160156 8.234375 -11.046875 C 6.023438 -14.929688 4.921875 -19.414062 4.921875 -24.5 C 4.921875 -29.65625 6.007812 -34.242188 8.1875 -38.265625 C 10.363281 -42.285156 13.375 -45.414062 17.21875 -47.65625 C 21.070312 -49.894531 25.609375 -51.015625 30.828125 -51.015625 C 35.722656 -51.015625 40.046875 -49.941406 43.796875 -47.796875 C 47.546875 -45.660156 50.472656 -42.734375 52.578125 -39.015625 C 54.691406 -35.304688 55.75 -31.171875 55.75 -26.609375 C 55.75 -25.878906 55.726562 -25.109375 55.6875 -24.296875 C 55.65625 -23.492188 55.609375 -22.660156 55.546875 -21.796875 L 17.671875 -21.796875 C 17.941406 -17.910156 19.296875 -14.863281 21.734375 -12.65625 C 24.179688 -10.445312 27.148438 -9.34375 30.640625 -9.34375 C 33.242188 -9.34375 35.429688 -9.925781 37.203125 -11.09375 C 38.984375 -12.269531 40.304688 -13.796875 41.171875 -15.671875 L 54.234375 -15.671875 C 53.296875 -12.523438 51.738281 -9.660156 49.5625 -7.078125 C 47.382812 -4.503906 44.707031 -2.476562 41.53125 -1 C 38.351562 0.46875 34.753906 1.203125 30.734375 1.203125 Z M 30.828125 -40.578125 C 27.679688 -40.578125 24.898438 -39.6875 22.484375 -37.90625 C 20.078125 -36.132812 18.539062 -33.441406 17.875 -29.828125 L 42.6875 -29.828125 C 42.488281 -33.109375 41.28125 -35.71875 39.0625 -37.65625 C 36.851562 -39.601562 34.109375 -40.578125 30.828125 -40.578125 Z M 30.828125 -40.578125 "/></g></g></g><g fill="#000000" fill-opacity="1"><g transform="translate(485.170099, 322.703544)"><g><path d="M 30.9375 1.203125 C 25.84375 1.203125 21.351562 0.0976562 17.46875 -2.109375 C 13.59375 -4.316406 10.53125 -7.394531 8.28125 -11.34375 C 6.039062 -15.300781 4.921875 -19.820312 4.921875 -24.90625 C 4.921875 -30 6.039062 -34.519531 8.28125 -38.46875 C 10.53125 -42.414062 13.59375 -45.492188 17.46875 -47.703125 C 21.351562 -49.910156 25.84375 -51.015625 30.9375 -51.015625 C 37.289062 -51.015625 42.644531 -49.359375 47 -46.046875 C 51.351562 -42.734375 54.132812 -38.164062 55.34375 -32.34375 L 41.78125 -32.34375 C 41.113281 -34.75 39.789062 -36.640625 37.8125 -38.015625 C 35.84375 -39.390625 33.515625 -40.078125 30.828125 -40.078125 C 27.285156 -40.078125 24.273438 -38.738281 21.796875 -36.0625 C 19.316406 -33.382812 18.078125 -29.664062 18.078125 -24.90625 C 18.078125 -20.15625 19.316406 -16.441406 21.796875 -13.765625 C 24.273438 -11.085938 27.285156 -9.75 30.828125 -9.75 C 33.515625 -9.75 35.84375 -10.414062 37.8125 -11.75 C 39.789062 -13.09375 41.113281 -15 41.78125 -17.46875 L 55.34375 -17.46875 C 54.132812 -11.851562 51.351562 -7.335938 47 -3.921875 C 42.644531 -0.503906 37.289062 1.203125 30.9375 1.203125 Z M 30.9375 1.203125 "/></g></g></g><g fill="#000000" fill-opacity="1"><g transform="translate(545.423514, 322.703544)"><g><path d="M 6.53125 0 L 6.53125 -72.3125 L 19.390625 -72.3125 L 19.390625 -42.1875 C 21.054688 -44.925781 23.3125 -47.082031 26.15625 -48.65625 C 29.007812 -50.226562 32.273438 -51.015625 35.953125 -51.015625 C 42.117188 -51.015625 46.890625 -49.070312 50.265625 -45.1875 C 53.648438 -41.3125 55.34375 -35.625 55.34375 -28.125 L 55.34375 0 L 42.578125 0 L 42.578125 -26.921875 C 42.578125 -31.203125 41.722656 -34.476562 40.015625 -36.75 C 38.316406 -39.03125 35.625 -40.171875 31.9375 -40.171875 C 28.320312 -40.171875 25.328125 -38.898438 22.953125 -36.359375 C 20.578125 -33.816406 19.390625 -30.269531 19.390625 -25.71875 L 19.390625 0 Z M 6.53125 0 "/></g></g></g><g fill="#000000" fill-opacity="1"><g transform="translate(606.480307, 322.703544)"><g><path d="M 34.75 -35.046875 L 34.75 -70.3125 L 47.40625 -70.3125 L 56.640625 -46.296875 L 66.6875 -70.3125 L 78.4375 -70.3125 L 78.4375 -35.046875 L 69.609375 -35.046875 L 69.40625 -58.15625 L 59.65625 -35.046875 L 53.03125 -35.046875 L 43.28125 -58.953125 L 43.28125 -35.046875 Z M 11.25 -35.046875 L 11.34375 -62.671875 L 2.71875 -62.671875 L 2.71875 -70.3125 L 29.53125 -70.3125 L 29.53125 -62.671875 L 20.796875 -62.671875 L 20.890625 -35.046875 Z M 11.25 -35.046875 "/></g></g></g></svg>